<svg version="1.1" xmlns="http://www.w3.org/2000/svg" xmlns:xlink="http://www.w3.org/1999/xlink" width="48" height="48"><defs><linearGradient x1="11.08449" y1="11.08449" x2="64.95812" y2="64.95812" gradientUnits="userSpaceOnUse" id="color-1"><stop offset="0" stop-color="#000000" stop-opacity="0.3"></stop><stop offset="1" stop-color="#000000" stop-opacity="0"></stop></linearGradient><filter id="dropshadow-base"><feColorMatrix type="matrix" values="0 0 0 0 0  0 0 0 0 0  0 0 0 0 0  0 0 0 .8 0"></feColorMatrix> <feOffset dx="0" dy="1"></feOffset> <feGaussianBlur stdDeviation="1"></feGaussianBlur> <feComposite in="SourceGraphic"></feComposite></filter><filter id="dropshadow-banner" x="-10%" y="-10%" width="120%" height="130%"><feColorMatrix type="matrix" values="0 0 0 0 0  0 0 0 0 0  0 0 0 0 0  0 0 0 .4 0"></feColorMatrix> <feOffset dx="0" dy="1"></feOffset> <feGaussianBlur stdDeviation="0.5"></feGaussianBlur> <feComposite in="SourceGraphic"></feComposite></filter></defs><g fill="none" fill-rule="nonzero" stroke="none" stroke-width="none" stroke-linecap="butt" stroke-linejoin="miter" stroke-miterlimit="10" stroke-dasharray="" stroke-dashoffset="0" font-family="none" font-weight="none" font-size="none" text-anchor="none" style="mix-blend-mode: normal"><path d="M7,43c-1.10457,0 -2,-0.89543 -2,-2v-34c0,-1.10457 0.89543,-2 2,-2h34c1.10457,0 2,0.89543 2,2v34c0,1.10457 -0.89543,2 -2,2z" id="base 1 5" fill="#211526" stroke-width="1"></path><path d="M11.08449,30.45776v-18.08172c0,-0.71035 0.5812,-1.29155 1.29155,-1.29155h16.79017c0.35518,0 0.67806,0.1453 0.91216,0.37939l4.78681,4.78681h0.75879c0.35518,0 0.67806,0.1453 0.91216,0.37939l6.46388,6.46388v17.90603c0,1.10457 -0.89543,2 -2,2h-17.37327z" fill="url(#color-1)" stroke-width="1"></path><path d="M35.62396,16.25069h-2.5831v11.62396h-16.79017v2.5831c0,0.71035 0.5812,1.29155 1.29155,1.29155h14.20706l5.1662,5.1662v-19.37327c0,-0.71035 -0.5812,-1.29155 -1.29155,-1.29155zM30.45776,24v-11.62396c0,-0.71035 -0.5812,-1.29155 -1.29155,-1.29155h-16.79017c-0.71035,0 -1.29155,0.5812 -1.29155,1.29155v18.08172l5.1662,-5.1662h12.91551c0.71035,0 1.29155,-0.5812 1.29155,-1.29155z" fill="none" stroke-width="0"></path><path d="M36.91551,17.54224v19.37327l-5.1662,-5.1662h-14.20706c-0.71035,0 -1.29155,-0.5812 -1.29155,-1.29155v-2.5831h16.79017v-11.62396h2.5831c0.71035,0 1.29155,0.5812 1.29155,1.29155zM29.1662,25.29155h-12.91551l-5.1662,5.1662v-18.08172c0,-0.71035 0.5812,-1.29155 1.29155,-1.29155h16.79017c0.71035,0 1.29155,0.5812 1.29155,1.29155v11.62396c0,0.71035 -0.5812,1.29155 -1.29155,1.29155z" fill="#284d86" stroke-width="0"></path><path d="M2,24c0,-12.15026 9.84974,-22 22,-22c12.15026,0 22,9.84974 22,22c0,12.15026 -9.84974,22 -22,22c-12.15026,0 -22,-9.84974 -22,-22z" id="base 1 1 1" fill="none" stroke-width="1"></path><g fill="#000000" stroke-width="1" font-family="Roboto, sans-serif" font-weight="400" font-size="14" text-anchor="start"></g><path d="M13,36v-12h30v12z" id="banner 1" fill="#ba4f52" stroke-width="1" filter="url(#dropshadow-banner)"></path><text x="28" y="33" fill="#ffffff" stroke-width="1" font-family="sans-serif" font-weight="bold" font-size="8" text-anchor="middle">BETA</text><rect x="2" y="2" width="44" height="22" fill="none" stroke-width="1"></rect><path d="M2,24v-22h44v22z" fill="none" stroke-width="1"></path><path d="M2,24v-22h44v22z" fill="none" stroke-width="1"></path><path d="M2,24v-22h44v22z" fill="none" stroke-width="1"></path><path d="M2,24v-22h44v22z" fill="none" stroke-width="1"></path></g></svg>