<svg xmlns="http://www.w3.org/2000/svg" viewBox="0 0 576 576">
  <title>Tunnelgram-silhouette</title>
  <g id="Layer_2" data-name="Layer 2">
    <path d="M193.25,376.53q36.56,36.78,89.11,36.77,56.85,0,94.75-41.95,29.33-32,32.71-84.82l-253.11.22Q156.71,339.76,193.25,376.53ZM287.5,64C144.18,64,28,164.51,28,288.5c0,47.43,17,91.42,46,127.67C83.91,456.11,52,496,52,496s56.6,2.87,79.6-28C175,496.24,229,513,287.5,513,430.82,513,547,412.49,547,288.5S430.82,64,287.5,64Zm97.84,326.75q-42.75,41.73-103.21,41.73-60.23,0-102.52-42.86t-42.3-103.77q0-59.33,43-102T283,141.25q61.13,0,103.09,43.08t42,105.58Q428.09,349,385.34,390.75Z" style="fill: #fff"/>
  </g>
</svg>
