<svg xmlns="http://www.w3.org/2000/svg" viewBox="0 0 576 576">
  <title>Tunnelgram-silhouette</title>
  <g id="Layer_2" data-name="Layer 2">
    <path d="M188.34,387.91q40.71,41,99.28,41,63.35,0,105.57-46.76,32.69-35.69,36.45-94.51l-282,.25Q147.62,346.94,188.34,387.91ZM288,49C144.68,49,28.5,156,28.5,288c0,50.5,17,97.32,46,135.91,9.87,42.53-22,85-22,85s56.6,3.06,79.6-29.83C175.5,509.16,229.49,527,288,527c143.32,0,259.5-107,259.5-239S431.32,49,288,49ZM402.37,403.75q-47.64,46.5-115,46.5-67.11,0-114.24-47.76T126,286.87q0-66.1,47.88-113.61t114.5-47.51q68.12,0,114.87,48T450,291.39Q450,357.26,402.37,403.75Z" style="fill: #fff"/>
  </g>
</svg>
