<svg xmlns="http://www.w3.org/2000/svg" xmlns:xlink="http://www.w3.org/1999/xlink" viewBox="0 0 576 576">
  <defs>
    <linearGradient id="linear-gradient" x1="288" y1="49" x2="288" y2="527" gradientUnits="userSpaceOnUse">
      <stop offset="0" stop-color="#3261a8"/>
      <stop offset="1" stop-color="#284d86"/>
    </linearGradient>
  </defs>
  <title>Tunnelgram</title>
  <g id="Layer_2" data-name="Layer 2">
    <path d="M288,49C144.68,49,28.5,156,28.5,288c0,50.5,17,97.32,46,135.91,9.87,42.53-22,85-22,85s56.6,3.06,79.6-29.83C175.5,509.16,229.49,527,288,527c143.32,0,259.5-107,259.5-239S431.32,49,288,49Z" style="fill: url(#linear-gradient)"/>
    <path d="M450,291.39q0,65.87-47.63,112.36t-115,46.5q-67.11,0-114.24-47.76T126,286.87q0-66.1,47.88-113.61t114.5-47.51q68.12,0,114.87,48T450,291.39Zm-20.36-3.77-282,.25q0,59.07,40.72,100t99.28,41q63.35,0,105.57-46.76Q425.88,346.44,429.64,287.62Z" style="fill: #f7f9f9"/>
  </g>
</svg>
