<svg xmlns="http://www.w3.org/2000/svg" xmlns:xlink="http://www.w3.org/1999/xlink" viewBox="0 0 576 576">
  <defs>
    <linearGradient id="linear-gradient" x1="287.5" y1="64" x2="287.5" y2="513" gradientUnits="userSpaceOnUse">
      <stop offset="0" stop-color="#3261a8"/>
      <stop offset="1" stop-color="#284d86"/>
    </linearGradient>
  </defs>
  <title>Tunnelgram</title>
  <g id="Layer_2" data-name="Layer 2">
    <path d="M287.5,64C144.18,64,28,164.51,28,288.5c0,47.43,17,91.42,46,127.67C83.91,456.11,52,496,52,496s56.6,2.87,79.6-28C175,496.24,229,513,287.5,513,430.82,513,547,412.49,547,288.5S430.82,64,287.5,64Z" style="fill: url(#linear-gradient)"/>
    <path d="M428.09,289.91q0,59.1-42.75,100.84T282.13,432.48q-60.23,0-102.52-42.86t-42.3-103.77q0-59.33,43-102T283,141.25q61.13,0,103.09,43.08T428.09,289.91Zm-18.27-3.38-253.11.22q0,53,36.54,89.78t89.11,36.77q56.85,0,94.75-41.95Q406.44,339.31,409.82,286.53Z" style="fill: #f5f5f2"/>
  </g>
</svg>
