<svg version="1" xmlns="http://www.w3.org/2000/svg" width="3200" height="3200" viewBox="0 0 2400.000000 2400.000000"><path d="M1158.8 204.5c-.2.2-7 .6-15.3 1-8.2.3-17.2.8-20 1-2.7.2-9 .7-14 1-4.9.3-10.3.8-12 .9-1.6.2-6.6.7-11 1-4.4.4-9.3.9-11 1.1-1.6.2-5 .6-7.5.9-18.9 2.1-20 2.2-28 3.4-3.6.6-8.5 1.3-11 1.6-2.5.3-5.4.8-6.5 1-1.1.2-4.1.6-6.6 1-4.4.6-7.4 1.1-12.9 2.1-1.4.3-5.4 1-9 1.6-3.6.6-7.4 1.3-8.5 1.5-1.1.2-3.6.6-5.5.9-1.9.4-6.3 1.3-9.8 2.1-3.4.7-7.7 1.6-9.5 1.9-6.3 1.2-30.4 6.7-44.2 10.1-7.7 2-14.7 3.7-15.5 3.9-.8.2-4.2 1.1-7.5 2.1s-6.6 1.9-7.3 2c-.7.1-4.6 1.2-8.5 2.4-4 1.2-7.9 2.3-8.7 2.5-6.1 1.2-57.4 18.5-78.9 26.6-19 7.2-40.9 16-51.6 20.9-3.3 1.5-11.4 5.1-18 8-47.3 21.2-105.9 53.7-151.5 84.1-21.5 14.4-52.8 36.5-55 38.9-.3.3-4.3 3.4-9 7-4.7 3.5-9 6.9-9.7 7.5-.7.5-1.8 1.4-2.5 2-5.1 4-23 18.5-25.8 21.1-1.9 1.7-7.8 6.9-13 11.4-27.7 24.1-65.9 61.8-88.5 87.5-3.8 4.4-8.4 9.5-10.2 11.5-27.1 30-66.7 83.5-92.2 124.5-5.2 8.2-10.2 16.2-11.2 17.7-1.1 1.5-1.9 3-1.9 3.2 0 .3-1.8 3.5-4 7.1-2.2 3.6-4 6.7-4 6.9 0 .3-2.3 4.4-5.1 9.3-13.8 23.8-35 67.9-47.9 99.3-3.9 9.6-7.5 18.4-8 19.5-2.3 5.2-14.4 39.7-18.9 54-9.2 29.2-17.9 62.1-23.1 87.1-1.1 5.5-2.3 11.1-2.6 12.5-.6 2.8-3 15.8-3.8 20.9-.4 1.9-1.1 5.7-1.6 8.5-.9 4.8-1.5 8.6-2.5 17-.3 2.1-.7 5-.9 6.4-1.3 8.1-2.5 17.8-3.1 23.6-.2 2.8-.6 6.4-.9 8-.2 1.7-.7 6.6-1.1 11-.3 4.4-.8 9.8-1 12-.3 2.2-.7 8.9-1.1 15-.3 6-.8 13.9-1 17.5-.4 8.9-.5 71.8 0 81 .7 13.4 1.6 28.4 2.1 33.8 1.8 19.2 2.5 26.9 3 30.7.2 1.6.7 5.2 1 8 .8 7.2 2.5 19.8 2.9 22.2.3 1.1.7 4.4 1.1 7.4.3 3 .8 6.1 1 6.9.2.8.7 3 1 4.7.3 1.8.7 4.8 1 6.5.6 3.4 3 16.4 4 20.7.2 1.4 1.4 7 2.5 12.5 16.6 80.7 51.9 176.3 92.5 250.1 7.4 13.5 22.7 40 25.6 44.3 1.6 2.4 2.9 4.5 2.9 4.8 0 1.2 29.2 44.7 39.4 58.8 11 15.1 12.5 18.4 14 29.6.4 2.5.9 5.6 1.1 7 1.2 6.6 1.6 10 3.1 26 1.6 18-.1 60-3.2 76.5-.2 1-.6 3.5-.9 5.5-.5 3.5-1 5.9-2 11-.2 1.4-.7 3.6-.9 5-.2 1.4-1.1 5.5-2 9.1-.8 3.7-1.7 7.8-2 9-.7 3.7-3.5 13.7-5.8 21.4-1.2 3.8-2.2 7.2-2.3 7.5-2.2 8.5-13.2 38.3-20.2 54.5-7.1 16.4-25.1 52.6-29.5 59.1-1.6 2.3-2.8 4.4-2.8 4.8 0 .9-10.8 18.3-19 30.7-4.4 6.6-8 12.1-8 12.4 0 .5 46.9-.3 54-.9 2.5-.2 8.3-.7 13-1 4.7-.4 9.6-.8 11-1 1.4-.2 5.2-.7 8.5-1.1 7.1-.8 10.8-1.3 19.5-2.6 3.6-.6 7.4-1.2 8.5-1.4 4.6-.6 15.5-2.7 22-4.1 3.9-.9 7.7-1.7 8.6-1.9 20.2-4.1 56.6-15.8 76.9-24.7 11.9-5.2 29.5-14.6 41.2-21.9 25.7-16 46.8-35.2 65.9-60l2.6-3.4 5.9 4c3.2 2.2 6.1 4.3 6.4 4.6.3.3 1 .8 1.5 1 .6.2 5.7 3.5 11.5 7.3s12.1 7.9 14 9.1c1.9 1.3 8.5 5.3 14.5 8.9 6.1 3.7 11.7 7.1 12.5 7.6 2.3 1.4 20 11.5 25 14.3 2.5 1.3 8.3 4.6 13 7.2 8.7 4.7 55.2 27.9 67 33.3 3.6 1.6 15.3 6.6 26 11.1s20.4 8.6 21.5 9.1c26.1 11 80.3 29.3 120 40.3 9.6 2.7 44 11.4 47.7 12.1 1.3.2 4.1.9 6.3 1.4 2.2.6 5.1 1.3 6.5 1.5 1.4.3 9.3 1.9 17.6 3.6 8.3 1.7 16.8 3.3 18.9 3.7 2.1.3 4.7.8 5.9 1 2.4.5 3.2.6 16.6 2.9 5.2.9 11.1 1.9 13 2.1 1.9.2 8 1.1 13.5 1.9 9.2 1.3 12.5 1.7 24 3.1 2.2.2 5.6.6 7.5.9 10.8 1.4 29.7 3.1 43 4 4.1.3 10 .7 13 1 32.8 2.7 115.6 2.7 152.5 0 2.8-.2 9.3-.6 14.5-1 5.2-.3 11.3-.8 13.5-1 2.2-.2 6.5-.6 9.5-.9 23.4-2.3 48.9-5.4 59.5-7.3 1.7-.3 4.4-.6 6-.8 1.7-.2 4.4-.6 6-.9 1.7-.3 4.6-.8 6.5-1.1 1.9-.3 7.1-1.2 11.5-2s9.4-1.7 11-2c7.4-1.3 10.1-1.8 28.5-5.6 10.7-2.3 27.6-6.1 37.5-8.6 9.9-2.4 18.7-4.6 19.5-4.8 21.3-5.3 70.5-20.8 99.5-31.3 22.2-8.1 60.9-23.9 80-32.7 13.9-6.4 29.2-13.6 30.5-14.4.8-.5 7.8-4.1 15.5-8 18.7-9.4 32-16.7 55.5-30.4 30.3-17.7 57.5-35.4 87.5-57.1 9.9-7.1 18.2-13.2 18.5-13.5.3-.3 4.3-3.5 9-7.1 4.7-3.6 9.2-7 10-7.6.8-.7 9.6-8 19.6-16.2 25.1-20.9 46.4-40.3 69.4-63.2 17.3-17.4 23.7-24 43.6-45.9 4.9-5.3 20.1-23.2 26.8-31.5 1.7-2.1 5.2-6.4 7.7-9.5 19.7-24.2 48.4-64.9 67.4-95.6 3.7-6.1 7.6-12.2 8.6-13.7 1.1-1.5 1.9-3 1.9-3.2 0-.3 1.8-3.5 4-7.1 2.2-3.6 4-6.7 4-6.9 0-.3 2.3-4.4 5.1-9.3 12.3-21.2 33.7-65.2 46.2-94.8 13.7-32.6 34.4-92.5 39.2-113.5.1-.8 1.5-5.9 3-11.3 1.4-5.3 2.8-10.5 3-11.5.2-.9 1.9-8.7 3.9-17.2 3.3-14.6 7.1-32.8 8.1-39.5.3-1.7.7-4.1 1-5.5.3-1.4.7-4.1 1-6 .3-1.9.8-4.7 1.1-6.2.5-2.5.7-4 1.9-13.3.3-2.2 1.2-8.5 2-14s1.7-12.5 2-15.5c.3-3 .8-7.3 1-9.5.2-2.2.7-6.7.9-10 .3-3.3.7-8.5 1-11.5.5-5.1 1.2-16.1 2.2-32 .5-8.3.5-74.4 0-83-.8-14-1.8-28.7-2.2-33.5-.2-2.8-.6-7.7-.9-11-.5-5.6-.7-8.3-2.1-19.5-.3-2.5-.7-6.1-.9-8-.8-6.7-2.5-19.5-3-22-.2-1.4-.7-4.2-.9-6.2-.7-4.9-1.2-8-3.7-21.8-.5-3-1.2-7.1-1.5-9-.2-1.9-.7-4.3-1-5.2-.2-.9-.7-2.7-.9-3.9-4.8-24.7-14.3-63.1-21.2-85.4-36.1-116.5-88.4-217.2-162.7-313-37-47.7-85.3-99.1-130.1-138.5-3.3-2.9-7.3-6.4-9-7.9-1.6-1.5-5.7-4.9-9-7.6-3.3-2.8-6.6-5.5-7.3-6.2-2.9-2.8-25.7-20.7-38.2-30.1-7.4-5.6-13.9-10.6-14.5-11-5.9-4.5-25.3-18-39-27l-18-12c-2-1.6-36.4-22.2-48-28.8-29.7-16.8-76.5-40.3-101-50.7-3.8-1.6-9-3.8-11.3-4.9-6-2.7-39.7-16.2-45.2-18.1-2.5-.9-7-2.5-10-3.7-19.7-7.6-86.6-28.7-100-31.5-.8-.2-8.9-2.2-18-4.4-9.1-2.3-17.4-4.3-18.5-4.5-1.1-.2-3.8-.9-6-1.4-2.2-.6-5.3-1.3-6.9-1.6-1.6-.3-8.3-1.6-15-3-6.6-1.4-13.4-2.8-15.1-3.1-1.6-.2-4.1-.7-5.5-1-4.8-1-37.5-6.4-42.5-7-2.7-.3-5.7-.8-6.5-1-.8-.2-4-.6-7.1-1-3.1-.3-6.5-.7-7.5-.9-1.1-.2-5-.7-8.9-1.1-3.8-.4-7.2-.8-7.5-1-.3-.1-4.5-.6-9.5-.9-4.9-.4-9.7-.9-10.5-1.1-1.7-.4-14.3-1.4-38-3-5.2-.3-12.6-.8-16.5-1.1-7.4-.6-100.2-1.4-100.7-.9zm90.2 320.9c1.9.2 8.1.7 13.7 1.1 5.5.3 11.2.8 12.5 1 1.2.2 4.8.7 7.8.9 3 .3 7.1.8 9 1.1 1.9.2 5.8.7 8.5 1.1 2.8.3 5.9.8 6.9 1 1.1.2 4.2.6 7 .9 2.8.3 5.8.8 6.6 1 .8.2 3.1.6 5 .9 1.9.3 4.6.8 6 1.1 1.4.3 3.9.7 5.5 1 3 .5 7.9 1.6 25.5 5.5 5.2 1.2 10.3 2.4 11.3 2.6 1 .2 2.7.6 3.7.9 1 .3 2.8.8 4 1 1.1.2 3.5.9 5.3 1.5 1.8.5 8.4 2.6 14.7 4.4 77.1 22.8 152.7 63.1 216.5 115.4 12.1 9.9 13.4 11 18 15 35.2 30.9 70.1 67.8 97.1 102.7 8.9 11.5 26.7 36.2 28.4 39.5.7 1.3 1.9 3 2.5 3.6 1 1 8.4 12.9 18.2 29.2 11.1 18.5 28.2 52.5 37.3 74.2 2.9 6.9 5.6 13.4 6.1 14.5 1.8 4 10.9 28.7 12.3 33.3.8 2.6 3 9.8 5 16 2 6.2 3.8 12.3 4 13.5.3 1.2 1.2 4.4 2 7.2 1.7 5.2 6.3 24.4 9.1 37.5.9 4.1 1.8 8.4 2.1 9.5.2 1.1 1.1 5.8 1.9 10.5.8 4.7 1.7 9.6 2 11 .3 1.4.8 4.3 1.1 6.5.2 2.2.7 5.1.9 6.5.2 1.4.7 4.7 1 7.5.3 2.7.8 6.1 1 7.5 1 5.9 2.9 24.2 4 37.8 2.7 34.1 2.6 97.5-.1 122.7-.2 2.2-.6 6.9-.9 10.5-.3 3.6-.7 7.6-.9 9-.3 1.4-.8 5.2-1.1 8.5-.9 8.3-1.9 15-6 39.5-.4 2.1-3.9 19.2-5 24l-2 8c-.9 3.6-1.9 7.6-2.1 9-.3 1.4-.8 3.4-1.1 4.5-.4 1.1-.8 2.4-.9 3-1.7 8.9-17.4 55.7-22.5 67.2-1.1 2.3-1.9 4.6-1.9 5.1s-.6 2.2-1.4 3.8c-.8 1.6-3.3 7.1-5.6 12.3-8.5 19.5-22.7 46.6-35.3 67.6-6 10.1-27.4 42.6-28.6 43.5-.4.3-1.8 2.1-3.1 4-20.1 29.2-67 80.8-101.2 111.2-12 10.7-19 16.5-41.1 34.5-5.8 4.6-32 23.1-43.2 30.5-42.4 27.7-87.9 50.4-134.6 67.1-15.3 5.5-36.2 12.3-40.3 13.1-1.1.3-3.7 1-5.6 1.6-1.9.6-4.2 1.3-5 1.5-3.6.8-10.6 2.6-12 3-2 .5-24.1 5.6-26 6-.8.1-3.1.5-5 .9-1.9.3-4.6.8-6 1.1-1.4.3-3.8.8-5.5 1-1.6.3-5.7 1-9 1.6-3.3.6-7.3 1.3-9 1.4-1.6.2-7.9 1-14 1.9-15.9 2.2-19.2 2.6-27.5 3.2-4.1.3-8.5.7-9.8.9-15.6 2.6-95.1 2.6-122.2 0-1.9-.2-6.6-.6-10.5-.9-3.8-.4-8.1-.8-9.5-1-1.4-.2-5.2-.7-8.5-1.1-11.9-1.4-13.1-1.5-17-2.1-2.2-.4-4.9-.8-6-1-1.1-.1-3.8-.5-6-.9-2.2-.3-4.7-.7-5.5-1-.8-.2-3.1-.7-5-.9-8.9-1.2-41.9-8.8-56.5-13-.5-.1-3-.8-5.5-1.5s-7.2-2.1-10.6-3.2c-3.3-1.1-6.9-2.1-8-2.4-5.6-1.3-43.8-15.5-54.4-20.3-2.5-1.1-8.8-3.9-14-6.3-13.6-6.1-39.5-19.5-54-27.9-24.3-14.1-60.9-39.2-80.1-54.9-3.1-2.5-6.7-5.5-8.1-6.6-2.7-2.2-11.7-9.7-15.4-13-14.4-12.8-20.5-18.6-36.4-34.5-18.4-18.4-22.6-22.8-35-36.9-3.6-4.1-6.9-7.9-7.5-8.5-1.1-1.2-9.2-11.1-11.2-13.6-.6-.8-3.2-4-5.6-7-20.1-25.2-46-64.2-61.7-93-4-7.4-15.9-31.4-21.8-44-9.7-20.7-22.4-55.3-30.8-84-2.5-8.5-4.7-16.2-4.9-17-1.9-7.8-6.8-28.9-7.1-30.5-.2-1.1-1.3-6.5-2.4-12-1.1-5.5-2.2-11.4-2.4-13-.2-1.7-1.3-8.9-2.4-16-1.1-7.2-2.3-15.7-2.7-19-.3-3.3-.8-7.1-1-8.5-.2-1.4-.7-6.1-1-10.5-.4-4.4-.9-9.4-1-11-2.6-25.6-2.6-96.4 0-120.5.2-1.9.6-6.7 1-10.5.6-7.4.9-10.3 2.6-22.5 1.6-12.3 1.9-14.2 2.9-20.5.9-5.7 1.3-7.5 2.5-13.5.2-1.4.7-3.9 1-5.7.3-1.7 1.7-8.5 3.1-15 1.4-6.5 2.7-12.5 2.9-13.3.4-1.7 3.2-12.5 6.9-26 4.1-14.8 13.8-42.9 20.9-60.5 18.1-44.9 45.1-94.1 71-129.9 27.2-37.4 48.5-62.4 79.2-93.1 21.8-21.8 38.4-37 56-51.4 57.2-46.5 115.2-80.8 177-104.7 7.7-3 14.9-5.9 16-6.4 2.3-1 38.7-12.8 41.9-13.5 1.2-.2 7.3-1.8 13.6-3.5s12.4-3.2 13.5-3.5c1.1-.2 5.8-1.3 10.5-2.4 4.7-1 10.1-2.2 12.1-2.5 2-.3 4.2-.8 5-1 .8-.3 3-.7 4.9-1 1.9-.3 4.4-.7 5.5-1 1.1-.2 5.6-.9 10-1.6 4.4-.7 8.7-1.4 9.6-1.5.9-.2 4-.6 7-1s6.7-.9 8.3-1.1c1.6-.2 5.7-.6 9-.9 3.4-.3 7.7-.8 9.6-1 5.2-.8 12-1.3 27.5-2 7.7-.4 14.2-.9 14.3-1.1.6-.4 72.2.5 76.2 1z"/><path d="M1153.6 1198.7c-.1.1-121.4.3-269.5.4l-269.4.2.6 20.1c.4 11.1.9 22.6 1.1 25.6.3 3 .8 9.5 1.1 14.5.4 4.9.8 9.2 1 9.5.2.3.6 3.7.9 7.5.3 3.9.8 8.3 1.1 10 1.2 7.6 1.5 9.3 2 13.5.3 2.5.7 5.2.9 6 .1.8.6 3.3 1 5.5 4.6 24.5 9.2 44.6 14.1 61 2 6.6 3.8 12.7 4 13.5 1.8 7.3 15.1 42.3 21.2 55.9 6.3 14.1 19.3 39.6 27.1 52.9 9.1 15.8 27.8 44.5 29.3 45 .5.2.9.8.9 1.3s3 4.9 6.7 9.7c30.2 39.4 57.1 68 95.3 101.3 4.6 4 30.5 24.5 34 26.9 1.9 1.3 3.7 2.7 4 3 1.3 1.7 36.9 24.6 48.5 31.3 21 12 43.1 22.8 63.5 31.1 3.6 1.5 7.4 3.1 8.5 3.6 18.6 8.2 65.9 22 94.5 27.5 7.4 1.5 19 3.5 22.5 4 2.3.3 5 .7 6 .9 2.2.4 8.2 1.2 16 2.1 2.8.3 6.4.8 8 1 20.5 2.8 73.8 4.5 99 3.1 13.5-.7 30.2-1.8 32.5-2.1 1.4-.2 5.7-.6 9.5-1 3.9-.4 7.8-.9 8.9-1.1 1-.2 4.4-.6 7.5-.9 3.1-.4 6.3-.8 7.1-1 .8-.2 3.8-.7 6.5-1.1 2.8-.3 5.9-.8 7-1 4.2-.8 14.1-2.6 16.5-3 3.1-.5 16.1-3.4 22-4.9.3 0 3-.7 6-1.4 45.5-10.9 103.8-34.4 142.1-57.6 5.1-3 9.4-5.5 9.6-5.5 1 0 35.4-23.2 43.8-29.5 8.6-6.5 28.5-22.3 29.5-23.4.3-.3 2.3-2.1 4.5-4 21.8-18.5 48.5-45.6 74.9-76.1 10.3-11.8 35.8-48 46.3-65.5 8.6-14.5 23-41.9 29.3-56 1.8-3.9 3.8-8.4 4.5-10 7.1-15.7 17.4-44.1 24.6-68 3.9-12.7 12.2-45 13.2-51 .3-1.7.9-4.8 1.5-7s1.3-5.6 1.6-7.5c.3-1.9 1.2-6.9 2-11 .8-4.2 1.8-9.8 2.2-12.5.3-2.8.8-5.9 1-7 .3-1.1.9-5.4 1.5-9.5 1.1-7.8 1.3-9.8 2.3-16.5.7-4.3 1.3-10.3 2.1-20.5.3-3.6.8-7.6 1-9 .2-1.4.7-7.3 1-13.1l.6-10.6-318.1.1c-175 .1-318.3.2-318.4.3z"/></svg>