<svg version="1" xmlns="http://www.w3.org/2000/svg" width="933.333" height="933.333" viewBox="0 0 700.000000 700.000000"><path d="M325.9 78.4c-.2.2-4.2.6-8.9 1-27.8 2.1-58.8 8.8-88.5 19.2-3.8 1.3-7.9 2.9-9 3.4-1.1.5-4.4 1.9-7.3 3-13.6 5.2-38.3 18.4-54.2 28.8-35.2 23.3-66.5 55.2-87 88.7-19.7 32.2-32.4 69.3-35.8 104.5-1.3 14.4-.7 44.7 1.2 56 .3 1.4.7 4.3 1 6.6.9 6.9 4.6 22.3 7.8 32.4 6.3 19.6 13.1 34.8 23.7 53 4.9 8.5 5.1 8.8 13.3 20 5.1 7 7.9 11.9 8.3 14.5.4 2.2.9 4.9 1.2 6 1.2 6.4.3 20-2.3 32.2-2.2 10.6-12.1 34.9-16.7 40.8-2.2 2.9-8.7 13.4-8.7 14 0 .6 20-.1 25-1 1.4-.2 4.6-.7 7.2-1 12.1-1.4 30.4-7.2 40.8-12.8 7-3.8 16.1-10.8 19.9-15.4l3-3.6 11.8 7c31.7 18.9 60.8 30.1 104.8 40.3 7.9 1.8 24.3 4.3 37.5 5.6 3.6.3 8.3.8 10.5 1 5 .5 44.4.5 50.5 0 9.1-.7 18.6-1.7 20.5-2.1 1.1-.2 4.3-.7 7-1 21.1-2.7 51.8-10.7 75.5-19.8 18.9-7.2 42-18.9 59.6-30.2 34.3-22.1 64.1-51.2 85.3-83.2 23.3-35.2 37.1-73.9 40.8-114.3 1.3-14.3.6-45.2-1.3-54.5-.2-1.1-.7-3.8-.9-6-.3-2.2-.8-4.7-1-5.5-.2-.8-.7-2.9-1-4.5-1.8-10.5-6.5-25.9-12.5-40.9-10.3-26-30.5-58.1-48.5-77.2-1.1-1.1-3.4-3.6-5.1-5.5-12.5-13.8-39.9-36.6-54.6-45.4-.9-.5-4.2-2.6-7.3-4.5-22.2-13.7-48.7-25.6-75-33.9-12.4-3.9-30-8.4-37.5-9.6-1.9-.3-4.2-.8-5-1-.8-.2-3.5-.7-6-1-2.5-.3-5.6-.8-7-1-1.4-.2-5-.7-8-1-3-.4-6.8-.8-8.5-1.1-3.7-.6-58-1.6-58.6-1zm32.1 94c40.8 2.5 78 19.3 108 48.8 25.4 24.9 41.5 53.6 49.7 88.3 3.4 14.6 5.3 51.9 3.2 64.5-.5 3-1.1 7.3-1.4 9.5-7.3 50-47.9 102.1-97.9 125.4-14.9 7-35.3 13.1-48.7 14.5-3.1.4-6.7.9-8 1.2-2.8.6-35.2.6-38.9.1-1.4-.3-5-.7-8-1.1-20.4-2.6-45.2-11.6-63.5-22.9-23.5-14.6-46.9-38.2-60.9-61.4-6.8-11.4-16.4-33.7-18.1-42-.1-1-1-4.5-1.8-7.8s-1.8-7.8-2.1-10c-.3-2.2-.9-6.3-1.3-9-1-6.4-1-38.3 0-45.6 6.3-49.1 30.3-87.6 76.2-122.7 4.2-3.1 18.1-11.1 25.7-14.6 19.6-9.1 38.6-13.9 60.8-15.2 5.2-.3 9.6-.7 9.7-.8.2-.2 5 0 17.3.8z"/><path d="M190.9 349.5c-.2 2.2.3 16.9.6 17.5.2.3.6 3.2 1 6.5 2.3 21.9 13.4 48 29.2 68.8 5.8 7.7 21.8 23.7 29.8 29.8 21.1 16.2 47 26.3 75.5 29.4 6.3.7 27 .7 31.5 0 1.7-.2 6.6-.9 11-1.5 24.3-3.5 51.2-15.3 69.9-30.8 7.9-6.6 25.6-25.4 30.2-32.2 10.1-14.7 20.1-37.5 22.9-51.9.2-1.3.6-3 .9-3.9.3-.9.8-3.3 1.1-5.2.3-1.9.7-4.6 1-6 .6-3.2 1.3-9 2-16.1l.6-5.6-153.6.1c-101.5.1-153.5.4-153.6 1.1z"/></svg>